<svg viewBox="0 0 1200 630" xmlns="http://www.w3.org/2000/svg" role="img" aria-label="Encode day one: on the left, the word PROSE over six grey lines of paragraph text — what I logged. On the right, the words A TABLE over an empty grid with column headers but zero rows — what I need. A gold arrow points from the prose to the table. Caption reads rows: 0.">
  <rect width="1200" height="630" fill="#0a0a0a"/>
  <text x="64" y="86" fill="#FFC233" font-family="ui-monospace, monospace" font-size="20" letter-spacing="6">// ENCODE · DAY ONE — DATA, NOT YET A TABLE</text>

  <!-- LEFT: prose (what I logged) -->
  <text x="66" y="172" fill="#9aa0a6" font-family="ui-monospace, monospace" font-size="15" letter-spacing="3">// WHAT I LOGGED</text>
  <text x="64" y="234" fill="#ffffff" font-family="system-ui, sans-serif" font-size="54" font-weight="800" letter-spacing="-2">PROSE</text>
  <rect x="68" y="252" width="70" height="8" fill="#ffffff"/>
  <g fill="#6b6b6b">
    <rect x="68" y="304" width="430" height="12" rx="2"/>
    <rect x="68" y="336" width="386" height="12" rx="2"/>
    <rect x="68" y="368" width="448" height="12" rx="2"/>
    <rect x="68" y="400" width="300" height="12" rx="2"/>
    <rect x="68" y="432" width="418" height="12" rx="2"/>
    <rect x="68" y="464" width="250" height="12" rx="2"/>
  </g>

  <!-- arrow -->
  <line x1="556" y1="388" x2="628" y2="388" stroke="#FFC233" stroke-width="4"/>
  <polygon points="628,378 648,388 628,398" fill="#FFC233"/>

  <!-- RIGHT: empty table (what I need) -->
  <text x="664" y="172" fill="#9aa0a6" font-family="ui-monospace, monospace" font-size="15" letter-spacing="3">// WHAT I NEED</text>
  <text x="662" y="234" fill="#FFC233" font-family="system-ui, sans-serif" font-size="54" font-weight="800" letter-spacing="-2">A TABLE</text>
  <rect x="666" y="252" width="70" height="8" fill="#A82A1A"/>

  <!-- table grid -->
  <rect x="664" y="300" width="472" height="176" fill="none" stroke="#A82A1A" stroke-width="2"/>
  <rect x="664" y="300" width="472" height="34" fill="#A82A1A" opacity="0.16"/>
  <g fill="#FFC233" opacity="0.9">
    <rect x="688" y="312" width="72" height="10" rx="1"/>
    <rect x="806" y="312" width="72" height="10" rx="1"/>
    <rect x="924" y="312" width="72" height="10" rx="1"/>
    <rect x="1042" y="312" width="72" height="10" rx="1"/>
  </g>
  <g stroke="#333333" stroke-width="1">
    <line x1="782" y1="300" x2="782" y2="476"/>
    <line x1="900" y1="300" x2="900" y2="476"/>
    <line x1="1018" y1="300" x2="1018" y2="476"/>
    <line x1="664" y1="334" x2="1136" y2="334"/>
    <line x1="664" y1="368" x2="1136" y2="368"/>
    <line x1="664" y1="402" x2="1136" y2="402"/>
    <line x1="664" y1="436" x2="1136" y2="436"/>
  </g>
  <text x="664" y="508" fill="#A82A1A" font-family="ui-monospace, monospace" font-size="16" letter-spacing="2">// rows: 0</text>

  <text x="64" y="566" fill="#666666" font-family="ui-monospace, monospace" font-size="18" letter-spacing="2">LOVE LEARN LIFT · lovelearnlift.com</text>
</svg>
