<svg viewBox="0 0 1200 480" xmlns="http://www.w3.org/2000/svg" role="img" aria-label="Steel rails converging under an amber voice waveform on a dark field">
  <rect width="1200" height="480" fill="#14161b"/>
  <rect width="1200" height="480" fill="url(#g)"/>
  <defs>
    <linearGradient id="g" x1="0" y1="0" x2="0" y2="1">
      <stop offset="0" stop-color="#1b1e25"/>
      <stop offset="1" stop-color="#0e1014"/>
    </linearGradient>
  </defs>
  <g stroke="#3a3f4b" stroke-width="6" fill="none">
    <path d="M520 470 L40 470"/><path d="M680 470 L1160 470"/>
    <path d="M548 470 L300 300 M652 470 L900 300"/>
    <path d="M566 470 L430 360 M634 470 L770 360"/>
  </g>
  <g stroke="#6b7280" stroke-width="3">
    <line x1="470" y1="470" x2="500" y2="430"/><line x1="730" y1="470" x2="700" y2="430"/>
    <line x1="410" y1="430" x2="445" y2="385"/><line x1="790" y1="430" x2="755" y2="385"/>
  </g>
  <g fill="#e0a23c">
    <rect x="300" y="180" width="14" height="60" rx="7"/>
    <rect x="336" y="150" width="14" height="120" rx="7"/>
    <rect x="372" y="120" width="14" height="180" rx="7"/>
    <rect x="408" y="90" width="14" height="240" rx="7"/>
    <rect x="444" y="140" width="14" height="140" rx="7"/>
    <rect x="480" y="170" width="14" height="80" rx="7"/>
    <rect x="516" y="110" width="14" height="200" rx="7"/>
    <rect x="552" y="80" width="14" height="260" rx="7"/>
    <rect x="588" y="130" width="14" height="160" rx="7"/>
    <rect x="624" y="160" width="14" height="100" rx="7"/>
    <rect x="660" y="100" width="14" height="220" rx="7"/>
    <rect x="696" y="150" width="14" height="120" rx="7"/>
    <rect x="732" y="190" width="14" height="50" rx="7"/>
    <rect x="768" y="160" width="14" height="100" rx="7"/>
    <rect x="804" y="200" width="14" height="40" rx="7"/>
  </g>
</svg>
